<mxfile host="app.diagrams.net" modified="2023-07-11T06:49:03.251Z" agent="Mozilla/5.0 (Windows NT 10.0; Win64; x64) AppleWebKit/537.36 (KHTML, like Gecko) Chrome/114.0.0.0 Safari/537.36" version="21.5.2" etag="zovJXLrelRJ9qFzeNYJa" type="github">
  <diagram name="第 1 页" id="8ScQNb7gZ2gquOzPe0cO">
    <mxGraphModel>
      <root>
        <mxCell id="0" />
        <mxCell id="1" parent="0" />
      </root>
    </mxGraphModel>
  </diagram>
</mxfile>
